<svg xmlns="http://www.w3.org/2000/svg" viewBox="0 0 33 33"><defs><style>.cls-1{fill:#fff;}</style></defs><title>s</title><g id="Share_Icon_-_LI" data-name="Share Icon - LI"><path class="cls-1" d="M9.71,30H3.43V11.69H9.71ZM4.43,29H8.71V12.69H4.43Z"/><path class="cls-1" d="M30,30H23.63V21.07c0-2.31-.17-4.08-2.29-4.08-2,0-2.72,1.1-2.72,3.94V30H12.25V11.69H18.4v1.45a6.4,6.4,0,0,1,4.65-1.88C29.17,11.26,30,15.67,30,20Zm-5.37-1H29V20c0-4.64-1-7.74-5.94-7.74a5.16,5.16,0,0,0-4.64,2.53l-.14.27h-.8l-.07-.5V12.69H13.25V29h4.37V20.93c0-1.35,0-4.94,3.72-4.94,3.29,0,3.29,3.18,3.29,5.08Z"/><path class="cls-1" d="M6.57,10.16a3.57,3.57,0,1,1,3.57-3.57A3.57,3.57,0,0,1,6.57,10.16ZM6.57,4A2.57,2.57,0,1,0,9.14,6.59,2.57,2.57,0,0,0,6.57,4Z"/></g></svg>