<svg xmlns="http://www.w3.org/2000/svg" viewBox="0 0 33 33"><defs><style>.cls-1{fill:#fff;}</style></defs><title>s</title><g id="Share_Icon_-_Twitter" data-name="Share Icon - Twitter"><path class="cls-1" d="M12.3,27.27a14.63,14.63,0,0,1-8-2.38L2.5,23.71,4.63,24A9.56,9.56,0,0,0,5.78,24a9.43,9.43,0,0,0,4.94-1.38,5.58,5.58,0,0,1-3.86-3.72l-.25-.8.83.16h0a5.66,5.66,0,0,1-2.39-4.63v-.86l.75.36.42.21a5.7,5.7,0,0,1-.37-6.22l.37-.64.46.57a13.8,13.8,0,0,0,9.4,5.12,5.71,5.71,0,0,1,0-.62A5.59,5.59,0,0,1,21.58,6a5.53,5.53,0,0,1,3.84,1.57A9.47,9.47,0,0,0,28.2,6.42l1.13-.68L28.94,7A5.62,5.62,0,0,1,28,8.78a9.42,9.42,0,0,0,.94-.36l1.57-.71-.94,1.44a10.79,10.79,0,0,1-2.42,2.62c0,.14,0,.28,0,.42C27.14,19.6,21.59,27.27,12.3,27.27ZM6.58,25a13.6,13.6,0,0,0,5.72,1.26c8.66,0,13.84-7.16,13.84-14.08,0-.21,0-.43,0-.64v-.27l.22-.16a9.84,9.84,0,0,0,1.36-1.21,10.59,10.59,0,0,1-1.38.26L24,10.45l2-1.2A4.62,4.62,0,0,0,27.36,8a10.39,10.39,0,0,1-2,.61l-.27.06-.19-.21A4.53,4.53,0,0,0,21.58,7,4.59,4.59,0,0,0,17,11.59a4.69,4.69,0,0,0,.12,1.06l.15.65-.66,0A14.76,14.76,0,0,1,6.4,8.32,4.7,4.7,0,0,0,6.1,10a4.64,4.64,0,0,0,2,3.85l1.43,1-1.72-.05a5.46,5.46,0,0,1-1.7-.33A4.59,4.59,0,0,0,9.7,18.21l2,.42-2,.56a5.47,5.47,0,0,1-1.63.2A4.54,4.54,0,0,0,12,21.84l1.39,0-1.08.86A10.44,10.44,0,0,1,6.58,25Z"/></g></svg>