<svg xmlns="http://www.w3.org/2000/svg" viewBox="0 0 33 33"><defs><style>.cls-1{fill:#fff;}</style></defs><title>s</title><g id="Share_Icon_-_FB" data-name="Share Icon - FB"><path class="cls-1" d="M19.08,30.5H13.14V18.18H9v-5.8h4.13v-3c0-4.22,2.55-6.84,6.65-6.84a34.54,34.54,0,0,1,3.75.19l.43.06V8H21c-1.59,0-1.87.59-1.87,1.84v2.56h4.8l-.74,5.8H19.08Zm-4.94-1h3.94V17.18h4.18l.49-3.8H18.08V9.82C18.08,8.5,18.41,7,21,7h2V3.64c-.67-.06-1.87-.14-3.19-.14-3.54,0-5.65,2.19-5.65,5.84v4H10v3.8h4.13Z"/></g></svg>