<svg xmlns="http://www.w3.org/2000/svg" viewBox="0 0 33 33"><defs><style>.cls-1{fill:#000;}</style></defs><title>s</title><g id="Share_Icon_-_Twitter" data-name="Share Icon - Twitter"><path class="cls-1" d="M30.5,7.82a11.45,11.45,0,0,1-3.3.9,5.76,5.76,0,0,0,2.53-3.18,11.5,11.5,0,0,1-3.65,1.39,5.75,5.75,0,0,0-9.79,5.24,16.31,16.31,0,0,1-11.84-6,5.75,5.75,0,0,0,1.78,7.67,5.74,5.74,0,0,1-2.6-.72v.07a5.75,5.75,0,0,0,4.61,5.63,5.75,5.75,0,0,1-2.59.1,5.75,5.75,0,0,0,5.37,4,11.52,11.52,0,0,1-7.13,2.46A11.71,11.71,0,0,1,2.5,25.3a16.26,16.26,0,0,0,8.81,2.58c10.57,0,16.34-8.75,16.34-16.35,0-.25,0-.5,0-.74a11.68,11.68,0,0,0,2.87-3"/></g></svg>