<svg xmlns="http://www.w3.org/2000/svg" viewBox="0 0 45 30"><defs><style>.cls-1{fill:none;}.cls-2{fill:#d9272e;}</style></defs><title>serviceproduct</title><g id="Product_Design" data-name="Product Design"><rect class="cls-1" x="0.18" y="0.12" width="44.64" height="29.76"/><path class="cls-2" d="M37.37,11.26h0a1.1,1.1,0,0,0-.16-.42,1.17,1.17,0,0,0-.81-.43h-.1a1.16,1.16,0,0,0-.76-.79l-.25-.08a1.17,1.17,0,0,0-.38-.09c-.49,0-.82.26-.82.63a.67.67,0,0,0,0,.22.62.62,0,0,0,0,.36.32.32,0,0,1-.18-.07,1.48,1.48,0,0,0-.27-.14l-.15-.06a.78.78,0,0,0-.33-.08.64.64,0,0,0-.64.64.82.82,0,0,0,.48.71l.13.06a1.55,1.55,0,0,1,.26.13c.07.05.31.3.49.5a1.39,1.39,0,0,0-1.06.51l-.2.13a.51.51,0,0,0-.25.37v0L27.2,16.56l-.52-.72A8.18,8.18,0,0,0,24.42,3.62l.72-1.25-.27-.16A9.63,9.63,0,0,0,20.09,1,9.41,9.41,0,0,0,10.69,12l.05.29,1.4-.17a8.16,8.16,0,0,0,1.7,3.72,39.73,39.73,0,0,0-2.69,4.25l-.5.86c-2.44,4.18-3.11,5.44-3.11,5.86,0,1.75,8.39,2.21,12.83,2.21s12.83-.46,12.83-2.21c0-.39-.55-1.36-2.12-4l-.84-1.43,4.33-5.76-.1-.11h0a.51.51,0,0,0,.26-.14l.2-.2a1.59,1.59,0,0,0,.62-1.23,1.81,1.81,0,0,1,0-.35,1.69,1.69,0,0,0,0-.25s0-.06,0-.1a.59.59,0,0,1,0-.18,3.38,3.38,0,0,1,.32-.19,1.6,1.6,0,0,0,.32-.21,2.1,2.1,0,0,0,.36-.44l.05-.08.1,0h.09a.56.56,0,0,0,.54-.35A.54.54,0,0,0,37.37,11.26Zm-26.2-.89a8.87,8.87,0,0,1,8.91-8.8,9,9,0,0,1,4.19,1L23.16,4.54l-.26-.17a4.56,4.56,0,0,0-1.67-.8,3.77,3.77,0,0,0-1.46.2l-.22.06a5.59,5.59,0,0,1-.62,0,3.39,3.39,0,0,0-1.26.1,2.6,2.6,0,0,0-.92.66,3.55,3.55,0,0,1-.44.38,3.11,3.11,0,0,1-.48.25,2.32,2.32,0,0,0-.84.55,4.09,4.09,0,0,0-.63,1.16c-.08.19-.15.36-.22.51a3.21,3.21,0,0,1-.31.46,3.14,3.14,0,0,0-.66,1.3,3.57,3.57,0,0,0,.21,1.38c0,.09.06.21.06.25s0,.34.06.52l-2.25.27A8.72,8.72,0,0,1,11.17,10.38Zm1.63,1.69,1.46-.18-.07-.33a6,6,0,0,1-.11-.78,2.16,2.16,0,0,0-.08-.36,4.25,4.25,0,0,1-.2-1.08,2.54,2.54,0,0,1,.54-1.06,3.73,3.73,0,0,0,.36-.55c.09-.17.16-.36.24-.55a3.69,3.69,0,0,1,.52-1,1.78,1.78,0,0,1,.63-.4,3.64,3.64,0,0,0,.57-.3A4.06,4.06,0,0,0,17.19,5a2.11,2.11,0,0,1,.7-.52,3,3,0,0,1,1-.07,6.1,6.1,0,0,0,.7,0,1.92,1.92,0,0,0,.34-.08,3.42,3.42,0,0,1,1.18-.19,4,4,0,0,1,1.43.71c.19.13.37.25.56.35l.27.16.7-1.22a7.52,7.52,0,0,1,2.18,11.1l-.47-.6a2.58,2.58,0,0,0-.39-.48l0,0-.16-.2v0a9.52,9.52,0,0,0-.79-.69,8,8,0,0,0-2.77-1.44,1.73,1.73,0,1,0-2.8,0,8,8,0,0,0-2.75,1.44,9.17,9.17,0,0,0-1,.89c-.39.41-.43.53-.43.61l-.42.49A7.5,7.5,0,0,1,12.8,12.06Zm12.08,2.59H23.39c-.81,0-1.86,0-3.12,0-2,0-3.82,0-4.68-.12a7.61,7.61,0,0,1,3.93-2.25.31.31,0,0,0,.15-.58,1.1,1.1,0,1,1,1.17,0,.32.32,0,0,0,.15.58,7.63,7.63,0,0,1,4,2.26Zm4.73,6.87.94,1.6a31.28,31.28,0,0,1,2,3.71c-.13.57-4.32,1.59-12.2,1.59s-12.07-1-12.2-1.58a53.08,53.08,0,0,1,3-5.55l.5-.86a30.11,30.11,0,0,1,3.47-5.18h.05l.17,0,.71.05h.26c1,0,2.38.07,3.91.07,2.66,0,4,0,4.78-.13h.1l.27,0c.23.29.74.94,1.42,1.93l.17.24,5.16-3.12h0l1.37,1.43.09.08-4,5.36-.12.18Zm7.26-9.94h-.1a.79.79,0,0,0-.35.11c-.19.1-.22.33-.5.59-.11.1-.29.16-.57.36a.74.74,0,0,0-.24.69,5.32,5.32,0,0,0-.07.62,1.09,1.09,0,0,1-.44.85l-.22.22-.07-.09-.18.22h0l-.2.25-1.37-1.43.26-.18h0l.27-.19L33,13.43a1.6,1.6,0,0,0,.34-.25.88.88,0,0,1,.71-.32c.13,0,.18,0,.3,0a.39.39,0,0,0,.35-.32.65.65,0,0,0-.18-.41,8.1,8.1,0,0,0-.72-.74,3,3,0,0,0-.46-.23.31.31,0,0,1-.19-.25.13.13,0,0,1,.13-.14c.06,0,.07,0,.3.11s.28.25.71.25a2.52,2.52,0,0,0,.62-.09s-.23-.61-.23-.66,0-.13,0-.18-.06-.08-.06-.17.24-.12.32-.12a4.24,4.24,0,0,1,.49.15.63.63,0,0,1,.41.45c0,.14-.09.42-.07.47s.07.06.19.06.33-.17.46-.17a.72.72,0,0,1,.4.22c0,.07.09.34.11.37S36.94,11.58,36.88,11.58Z"/></g></svg>