<svg id="Architecture" xmlns="http://www.w3.org/2000/svg" viewBox="0 0 45 30"><defs><style>.cls-1{fill:none;}.cls-2{fill:#d9272e;}</style></defs><title>servicearch</title><rect class="cls-1" x="0.18" y="0.12" width="44.64" height="29.76"/><path class="cls-2" d="M20.53,16.48h3.9V12.61h-3.9Zm.63-3.23H23.8v2.6H21.16Zm-6.48,3.23h3.9V12.61h-3.9Zm.63-3.23H18v2.6H15.31ZM22.51,1.91,12.12,10.84V28h8.34V22.73c0-.1,0-2.38,1.93-2.38h.22c1.88,0,1.93,2.29,1.93,2.38V28h8.34V10.84Zm9.74,25.45H25.17V22.72a4.28,4.28,0,0,0-.31-1.47,2.31,2.31,0,0,0-2.25-1.54h-.22a2.31,2.31,0,0,0-2.25,1.54,4.28,4.28,0,0,0-.31,1.47v4.64H12.75V11.13l9.75-8.39,9.74,8.39Zm-2-14.75h-3.9v3.86h3.9Zm-.63,3.23H27v-2.6h2.64Z"/></svg>