<svg xmlns="http://www.w3.org/2000/svg" viewBox="0 0 45 30"><defs><style>.cls-1{fill:none;}.cls-2{fill:#d9272e;}</style></defs><title>servicemasterplan</title><g id="Master_Planning" data-name="Master Planning"><rect class="cls-1" x="0.18" y="0.12" width="44.64" height="29.76"/><path class="cls-2" d="M21.85,5.77a.65.65,0,1,1,.65.65A.65.65,0,0,1,21.85,5.77ZM25,17.15h-2.2V18h-.63v-.89H20L16.26,29.41l-.43-5L18,17.15H16.8v-.63h1.4l2.68-8.94a2.42,2.42,0,0,1,.5-4V.32h2.23V3.61a2.42,2.42,0,0,1,.5,4l2.68,8.94h1.4v.63H27l2.19,7.29-.42,5.24Zm-1.45-9.2a2.41,2.41,0,0,1-.58.2l5.4,18.12.14-1.76ZM22,3.39a2.44,2.44,0,0,1,1,0V1H22Zm.49,4.17a1.8,1.8,0,0,0,.71-3.45h0l-.05,0a1.73,1.73,0,0,0-1.28,0l-.05,0h0a1.8,1.8,0,0,0,.71,3.45ZM16.61,26.09,22,8.14a2.41,2.41,0,0,1-.58-.2l-5,16.56Zm8.22-9.57L22.5,8.7l-2.35,7.82h2v-.89h.63v.89Z"/></g></svg>