<svg xmlns="http://www.w3.org/2000/svg" viewBox="0 0 45 30"><defs><style>.cls-1{fill:none;}.cls-2{fill:#d9272e;}</style></defs><title>serviceinter</title><g id="Interior_Design" data-name="Interior Design"><rect class="cls-1" x="0.18" y="0.12" width="44.64" height="29.76"/><path class="cls-2" d="M30.18,14.34c0-.75-1.25-2-1.64-2.31a9.3,9.3,0,0,0-1.6-1.19V6.6a17.71,17.71,0,0,0,2.37-.38l.24-.06V1.45l-.4.11a28.25,28.25,0,0,1-13.32,0l-.39-.09v4.7l.24.06a18.77,18.77,0,0,0,2.13.34v4.32a8.77,8.77,0,0,0-1.49,1.24c-.25.26-1.51,1.56-1.51,2.23a.88.88,0,0,0,.67.9V28.55h.58a57.41,57.41,0,0,0,.6-9.31v-.83c0-.68,0-1.7,0-2.22H17.8c0,.48,0,1,.07,1.64l.06.83h0c.14,1.75.34,3.35.34,3.37l0,.14h.86l0-.18s-.16-1.63-.27-3.35l0-.83c0-.62-.05-1.16-.06-1.62H26c0,.47,0,1-.06,1.62l0,.83c-.11,1.73-.27,3.34-.27,3.35l0,.18h.86l0-.14s.21-1.62.35-3.37l.06-.83c0-.61.06-1.16.07-1.64h1.14c0,.51,0,1.54,0,2.22v.83a57.27,57.27,0,0,0,.6,9.31h.58V15.34a1,1,0,0,0,.59-.26A1,1,0,0,0,30.18,14.34Zm-4.45-3.8H19V6.66a50.15,50.15,0,0,0,6.69,0ZM16.08,5.66V2.25a29,29,0,0,0,12.85,0V5.66A19.31,19.31,0,0,1,26.6,6l-.24,0h0L26,6a48.91,48.91,0,0,1-7.27,0l-.3,0-.28,0A20.92,20.92,0,0,1,16.08,5.66Zm13.39,9c-.14.13-.57.12-1,.11H16.82a4.64,4.64,0,0,1-1.11-.07c-.22-.06-.26-.15-.26-.31a5.31,5.31,0,0,1,1.33-1.8,5.89,5.89,0,0,1,1.73-1.32h7.68a5.9,5.9,0,0,1,1.93,1.3,4.45,4.45,0,0,1,1.43,1.84A.4.4,0,0,1,29.47,14.62Z"/></g></svg>