<svg xmlns="http://www.w3.org/2000/svg" viewBox="0 0 33 33"><defs><style>.cls-1{fill:#55595a;}</style></defs><title>project-icons-solid</title><g id="Project_URL" data-name="Project  URL"><path class="cls-1" d="M17.81,18.55c-.71.6-1.36,1.13-2,1.69a.41.41,0,0,0-.09.33,1.5,1.5,0,0,1-.53,1.53c-1.62,1.38-3.24,2.75-4.89,4.1A1.36,1.36,0,0,1,8.22,26L5.81,23.08A1.39,1.39,0,0,1,6,20.84c1.39-1.19,2.81-2.37,4.21-3.55l.52-.44a1.44,1.44,0,0,1,2.15.14L15,15.24a3.63,3.63,0,0,0-2.6-1.55,4,4,0,0,0-3.17.83c-1.82,1.49-3.65,3-5.38,4.57a4,4,0,0,0-.29,5.63c.87,1.05,1.76,2.09,2.64,3.13a4,4,0,0,0,5.67.69c1.88-1.46,3.7-3,5.47-4.62a4.07,4.07,0,0,0,.94-4.58C18.13,19.09,18,18.86,17.81,18.55Z"/><path class="cls-1" d="M20.44,16.33l-2.12,1.78A3.9,3.9,0,0,0,22,19.28a4.43,4.43,0,0,0,2.21-1.07c1.69-1.45,3.43-2.84,5.06-4.35a4,4,0,0,0,.24-5.55c-.87-1.05-1.75-2.09-2.64-3.13a4,4,0,0,0-5.67-.71c-1.89,1.46-3.7,3-5.47,4.62a4,4,0,0,0-.91,4.66,10.3,10.3,0,0,0,.67,1.08L17.58,13c-.6-.94-.44-1.6.52-2.4C19.54,9.45,21,8.23,22.39,7a3.15,3.15,0,0,1,.73-.48A1.22,1.22,0,0,1,24.69,7l2.51,3A1.41,1.41,0,0,1,27,12.17c-.76.66-1.54,1.3-2.31,1.94l-2.31,1.95A1.59,1.59,0,0,1,20.44,16.33Z"/><path class="cls-1" d="M11.45,19.46a2.46,2.46,0,0,0,1.17,1.65c.49.31.92,0,1.3-.35l6.79-5.71c.7-.59.73-1,.14-1.73-.12-.15-.24-.31-.38-.45a.93.93,0,0,0-1.42-.1q-3.59,3-7.16,6A2.73,2.73,0,0,0,11.45,19.46Z"/></g></svg>