<svg xmlns="http://www.w3.org/2000/svg" viewBox="0 0 33 33"><defs><style>.cls-1{fill:#55595a;}</style></defs><title>project-icons-solid</title><g id="Project_Industry" data-name="Project Industry"><polygon class="cls-1" points="26.88 7.19 19.63 7.19 18.26 20.72 11.38 17.88 11.38 20.88 4.13 17.88 4.13 27 11.38 27 17.63 27 18.63 27 28.88 27 26.88 7.19"/><path class="cls-1" d="M17.13,9.41C17.13,8.08,15.55,7,13.6,7a5,5,0,0,0-1.3.17A3.89,3.89,0,0,0,9.41,6c-2,0-3.53,1.23-3.53,2.75,0,.69.24,2.65,5.38,3.15S17.13,10.13,17.13,9.41Z"/></g></svg>