<svg xmlns="http://www.w3.org/2000/svg" viewBox="0 0 33 33"><defs><style>.cls-1{fill:#55595a;}.cls-2,.cls-3{fill:#fff;}.cls-3{stroke:#54585a;stroke-miterlimit:10;}</style></defs><title>project-icons-solid</title><g id="Project_Completion_Date" data-name="Project Completion Date"><polygon class="cls-1" points="23.63 6.94 23.63 10.39 20.63 10.39 20.63 6.94 12.38 6.94 12.38 10.39 9.38 10.39 9.38 6.94 5.22 6.94 5.22 29.51 27.78 29.51 27.78 6.94 23.63 6.94"/><rect class="cls-1" x="9.38" y="3.49" width="3" height="6.9"/><rect class="cls-1" x="20.63" y="3.49" width="3" height="6.9"/><polygon class="cls-2" points="23.2 14.93 13.9 24.23 9.8 20.13 8.25 21.68 13.9 27.32 24.75 16.48 23.2 14.93"/><polygon class="cls-3" points="23.63 6.94 23.63 10.39 20.63 10.39 20.63 6.94 12.38 6.94 12.38 10.39 9.38 10.39 9.38 6.94 5.22 6.94 5.22 13.44 27.78 13.44 27.78 6.94 23.63 6.94"/></g></svg>