<svg xmlns="http://www.w3.org/2000/svg" viewBox="0 0 15.89 10.12"><defs><style>.cls-1{fill:#545959;}</style></defs><title>Asset 1</title><g id="Layer_2" data-name="Layer 2"><g id="Layer_1-2" data-name="Layer 1"><path class="cls-1" d="M10.9.15a5,5,0,0,0-5,5,4.92,4.92,0,0,0,1.2,3.2,2.82,2.82,0,0,0,.39-.29,4.46,4.46,0,0,1-1.1-2.91A4.5,4.5,0,1,1,10.9,9.63,4.43,4.43,0,0,1,8.68,9l-.4.34A5,5,0,1,0,10.9.15Z"/><path class="cls-1" d="M8.39,2.08A4.48,4.48,0,1,1,5,.49,4.37,4.37,0,0,1,7.2,1.1c.13-.12.27-.23.41-.34A5,5,0,1,0,10,5a5,5,0,0,0-1.19-3.2A4,4,0,0,0,8.39,2.08Z"/></g></g></svg>