<svg xmlns="http://www.w3.org/2000/svg" viewBox="0 0 100 100"><defs><style>.cls-1{fill:#d22630;}</style></defs><title>icons-awards</title><g id="Awards_Icon" data-name="Awards Icon"><path class="cls-1" d="M50.37,12.3A22.55,22.55,0,1,0,72.92,34.85,22.57,22.57,0,0,0,50.37,12.3ZM70.74,34.85A20.26,20.26,0,0,1,65.5,48.44L36.78,19.72a20.34,20.34,0,0,1,34,15.13ZM30,34.85a20.27,20.27,0,0,1,5.24-13.59L64,50A20.34,20.34,0,0,1,30,34.85Z"/><path class="cls-1" d="M85.22,34.85A34.85,34.85,0,1,0,27.55,61.13L14.78,98.24,32,89.64,44.44,100l3.81-17.66,6.57,17.5L67,89.65l17.19,8.59L72.15,62A34.79,34.79,0,0,0,85.22,34.85Zm-67.53,0A32.67,32.67,0,1,1,50.37,67.53,32.71,32.71,0,0,1,17.7,34.85ZM43.07,96l-10.77-9L18.57,93.91,29.28,62.79a34.71,34.71,0,0,0,13.83,6.32l3.66,9.75Zm23.68-9-11,9.14-10-26.66a34,34,0,0,0,24.6-6L80.5,93.94Z"/></g></svg>