<svg xmlns="http://www.w3.org/2000/svg" viewBox="0 0 33 33"><defs><style>.cls-1{fill:#54585a;}</style></defs><title>Artboard 1 copy 4</title><g id="Translate_Icon" data-name="Translate Icon"><path class="cls-1" d="M16.5.5a16,16,0,1,0,16,16A16,16,0,0,0,16.5.5Zm-5.61,20a2.58,2.58,0,0,0-1.41-2.37c-.74-.47-2,0-2.37-.94C6,14.42,9.76,11.81,6.73,11.4c-.85-.11-2.08,1.2-2.73.47-.44-.49-.19-2.28-.29-2.49a14.73,14.73,0,0,1,6.53-6.1A8.14,8.14,0,0,1,9.23,7l0,.1c-.05.1-.09.19-.14.3S9,7.52,9,7.6A5,5,0,0,0,8.6,8.84C8.3,11.43,12.37,10.56,14,11a3.93,3.93,0,0,1,2.8,5.57,12.36,12.36,0,0,1-1.74,3.07c-.77,1-1.51,6.5-2.76,6.66-.53.07-1.15-1.51-1.23-2A24.33,24.33,0,0,1,10.89,20.53Zm2.33,10.21a3,3,0,0,1,1.64-1.42c1.06-.23,2.87-.3,3.29-1s2.39-1.27,3-1.27,2.31-.17,2,1.08-2.28,1.9-3,2.5a14.37,14.37,0,0,1-3.71.5A14.33,14.33,0,0,1,13.23,30.74ZM28,25.43c-1.12-.79-1.26-1.35-.62-2.6a8,8,0,0,0,.89-3.09c.23-2.1,1.77-6.1-1.94-5.16a3.09,3.09,0,0,1-3.93-2.49,3.66,3.66,0,0,1,.79-3.39c.47-.55,1.53-1,1.86-1.57s.09-1.2-.52-1.3a.39.39,0,0,0-.21,0h0l-.06,0a1.52,1.52,0,0,0-.54.24c-.39.25-2.26-1.47-1.8-2.34a1.37,1.37,0,0,1,.55-.56h.07A14.6,14.6,0,0,1,28,25.49Z"/></g></svg>